<svg width="32" height="32" viewBox="0 0 32 32" fill="none" xmlns="http://www.w3.org/2000/svg">
<path d="M28.5437 15.1419L26.9137 14.8794C26.8085 14.8617 26.7117 14.8107 26.6374 14.734C26.5632 14.6573 26.5155 14.5589 26.5012 14.4531C26.47 14.2531 26.4387 14.0525 26.395 13.8588C26.3738 13.7547 26.386 13.6467 26.4298 13.55C26.4735 13.4533 26.5466 13.3728 26.6387 13.32L28.0819 12.5188C28.1911 12.4629 28.2762 12.3691 28.321 12.2549C28.3659 12.1407 28.3676 12.0141 28.3256 11.8988L28.0756 11.2113C28.0338 11.0956 27.9505 10.9997 27.842 10.9419C27.7335 10.8842 27.6073 10.8688 27.4881 10.8988L25.87 11.2113C25.7648 11.2316 25.6558 11.2176 25.5592 11.1714C25.4625 11.1252 25.3833 11.0491 25.3331 10.9544C25.2394 10.7794 25.1394 10.6042 25.0331 10.4288C24.977 10.3375 24.951 10.231 24.9589 10.1242C24.9667 10.0174 25.008 9.91579 25.0769 9.83376L26.1575 8.58751C26.2413 8.49833 26.2895 8.38152 26.2929 8.25919C26.2964 8.13687 26.2549 8.01752 26.1762 7.92376L25.7081 7.36126C25.6301 7.26666 25.5196 7.20456 25.3982 7.18711C25.2769 7.16965 25.1534 7.1981 25.0519 7.26688L23.6337 8.11876C23.5426 8.17278 23.4366 8.19644 23.3311 8.18633C23.2256 8.17622 23.1261 8.13286 23.0469 8.06251C22.8969 7.93063 22.7406 7.79938 22.5844 7.67376C22.5012 7.60773 22.4413 7.51696 22.4132 7.4146C22.3851 7.31223 22.3903 7.20358 22.4281 7.10438L23.0156 5.55751C23.0656 5.44528 23.0725 5.31858 23.0351 5.20157C22.9976 5.08456 22.9184 4.98545 22.8125 4.92313L22.175 4.55376C22.0686 4.49334 21.9437 4.47403 21.8241 4.49949C21.7044 4.52494 21.5982 4.5934 21.5256 4.69188L20.4856 5.99438C20.4275 6.07636 20.3435 6.13636 20.2471 6.16471C20.1507 6.19306 20.0476 6.1881 19.9544 6.15063C19.9544 6.15063 19.6044 6.00688 19.3419 5.91876C19.2412 5.88521 19.1538 5.82049 19.0923 5.73397C19.0309 5.64745 18.9985 5.54362 19 5.43751L19.025 3.78438C19.0323 3.66143 18.9945 3.54002 18.9185 3.44308C18.8425 3.34614 18.7336 3.28035 18.6125 3.25813L17.8881 3.13313C17.7668 3.11213 17.6421 3.13619 17.5373 3.20076C17.4326 3.26534 17.3551 3.36599 17.3194 3.48376L16.7819 5.04938C16.7474 5.1503 16.6815 5.23754 16.5939 5.29837C16.5063 5.35921 16.4016 5.39044 16.295 5.38751H15.6825C15.576 5.38976 15.4716 5.35825 15.3841 5.29752C15.2967 5.23678 15.2307 5.14992 15.1956 5.04938L14.6581 3.48376C14.6224 3.36599 14.5449 3.26534 14.4401 3.20076C14.3354 3.13619 14.2106 3.11213 14.0894 3.13313L13.365 3.25813C13.2438 3.28035 13.135 3.34614 13.059 3.44308C12.983 3.54002 12.9451 3.66143 12.9525 3.78438L12.9775 5.43751C12.979 5.54388 12.9465 5.64797 12.8848 5.73463C12.8231 5.82129 12.7354 5.88601 12.6344 5.91938C12.4906 5.97563 12.1781 6.09501 12.0281 6.15126C11.8531 6.21376 11.6469 6.16376 11.4781 5.96938L10.4462 4.69813C10.3733 4.60006 10.2669 4.53211 10.1473 4.50712C10.0276 4.48213 9.90296 4.50183 9.79685 4.56251L9.15935 4.93188C9.05321 4.99301 8.97342 5.09124 8.93534 5.20766C8.89726 5.32408 8.90359 5.45047 8.9531 5.56251L9.5406 7.10938C9.57778 7.20866 9.58269 7.31713 9.55464 7.41936C9.52658 7.52159 9.46699 7.61236 9.38435 7.67876C9.2281 7.80376 9.07185 7.93563 8.92185 8.06751C8.84261 8.13786 8.74307 8.18122 8.63759 8.19133C8.5321 8.20144 8.42614 8.17778 8.33498 8.12376L6.93748 7.25876C6.83544 7.19162 6.71236 7.16415 6.59146 7.18153C6.47056 7.19892 6.36021 7.25996 6.28123 7.35313L5.8131 7.91563C5.73446 8.00939 5.69293 8.12874 5.69639 8.25107C5.69984 8.3734 5.74804 8.49021 5.83185 8.57938L6.91248 9.82563C6.98274 9.90694 7.02494 10.0087 7.03282 10.1159C7.0407 10.2231 7.01384 10.3299 6.95623 10.4206C6.84998 10.5873 6.74998 10.7625 6.65623 10.9463C6.60525 11.0402 6.52588 11.1157 6.42946 11.1618C6.33304 11.2079 6.22449 11.2224 6.11935 11.2031L4.50123 10.8906C4.38201 10.8616 4.25627 10.8773 4.14794 10.935C4.03961 10.9926 3.95625 11.088 3.91373 11.2031L3.66373 11.8906C3.62177 12.0059 3.6234 12.1326 3.66829 12.2468C3.71318 12.3609 3.79824 12.4548 3.90748 12.5106L5.34873 13.3125C5.44178 13.3643 5.51571 13.4446 5.55961 13.5416C5.6035 13.6386 5.61503 13.7472 5.59248 13.8513C5.55498 14.0513 5.51748 14.2456 5.48623 14.4456C5.47122 14.5511 5.42324 14.6491 5.34915 14.7257C5.27506 14.8023 5.17866 14.8534 5.07373 14.8719L3.44373 15.1344C3.32243 15.1493 3.21065 15.2077 3.12907 15.2987C3.04749 15.3897 3.00163 15.5072 2.99998 15.6294V16.3619C2.99846 16.485 3.04322 16.6042 3.1254 16.6958C3.20758 16.7875 3.32119 16.845 3.44373 16.8569L5.07373 17.1194C5.17897 17.1371 5.27579 17.188 5.35001 17.2647C5.42423 17.3414 5.47196 17.4399 5.48623 17.5456C5.51748 17.7456 5.54873 17.9463 5.59248 18.14C5.61363 18.244 5.60146 18.3521 5.5577 18.4488C5.51394 18.5455 5.44082 18.626 5.34873 18.6788L3.9056 19.4813C3.79636 19.5371 3.7113 19.631 3.66641 19.7451C3.62152 19.8593 3.6199 19.986 3.66185 20.1013L3.91185 20.7888C3.95367 20.9044 4.03692 21.0003 4.14546 21.0581C4.254 21.1158 4.38011 21.1312 4.49935 21.1013L6.11748 20.7888C6.22268 20.7684 6.33164 20.7824 6.4283 20.8286C6.52496 20.8749 6.6042 20.9509 6.65435 21.0456C6.7481 21.2206 6.8481 21.3958 6.95435 21.5713C7.01045 21.6625 7.03641 21.769 7.02856 21.8758C7.0207 21.9826 6.97944 22.0842 6.9106 22.1663L5.82998 23.4138C5.74616 23.5029 5.69797 23.6197 5.69451 23.7421C5.69106 23.8644 5.73258 23.9837 5.81123 24.0775L6.27935 24.64C6.35736 24.7346 6.46785 24.7967 6.58922 24.8142C6.71058 24.8316 6.8341 24.8032 6.9356 24.7344L8.35373 23.8825C8.44489 23.8285 8.55085 23.8048 8.65634 23.8149C8.76182 23.825 8.86136 23.8684 8.9406 23.9388C9.0906 24.0706 9.24685 24.2019 9.4031 24.3275C9.48621 24.3935 9.54615 24.4843 9.57424 24.5867C9.60233 24.689 9.59712 24.7977 9.55935 24.8969L8.97185 26.4438C8.92266 26.5561 8.91649 26.6827 8.95452 26.7993C8.99255 26.9159 9.07212 27.0145 9.1781 27.0763L9.8156 27.4456C9.922 27.506 10.0468 27.5254 10.1665 27.4999C10.2862 27.4744 10.3924 27.406 10.465 27.3075L11.5144 26.0175C11.6456 25.855 11.8581 25.7863 12.0269 25.855C12.2394 25.9425 12.3831 25.9925 12.6456 26.0806C12.7466 26.114 12.8344 26.1787 12.8961 26.2654C12.9578 26.352 12.9902 26.4561 12.9887 26.5625L12.9637 28.2156C12.9564 28.3386 12.9943 28.46 13.0702 28.5569C13.1462 28.6539 13.2551 28.7197 13.3762 28.7419L14.1006 28.8669C14.2219 28.8879 14.3466 28.8638 14.4514 28.7993C14.5561 28.7347 14.6336 28.634 14.6694 28.5163L15.2069 26.9538C15.2413 26.8528 15.3072 26.7656 15.3948 26.7048C15.4824 26.6439 15.5871 26.6127 15.6937 26.6156H16.3062C16.4127 26.6134 16.5171 26.6449 16.6046 26.7056C16.692 26.7664 16.758 26.8532 16.7931 26.9538L17.3306 28.5163C17.3663 28.634 17.4438 28.7347 17.5486 28.7993C17.6533 28.8638 17.7781 28.8879 17.8994 28.8669L18.6237 28.7419C18.7449 28.7197 18.8537 28.6539 18.9297 28.5569C19.0057 28.46 19.0436 28.3386 19.0362 28.2156L19.0112 26.5625C19.0097 26.4561 19.0422 26.352 19.1039 26.2654C19.1656 26.1787 19.2533 26.114 19.3544 26.0806C19.6169 25.9925 19.7919 25.9238 19.9544 25.8613C20.1169 25.7988 20.3169 25.7988 20.4731 25.9925L21.5356 27.3013C21.6086 27.4001 21.7153 27.4686 21.8356 27.4937C21.9558 27.5188 22.0811 27.4988 22.1875 27.4375L22.825 27.0681C22.9317 27.0071 23.0119 26.9085 23.05 26.7916C23.0881 26.6747 23.0814 26.5479 23.0312 26.4356L22.4437 24.8888C22.4066 24.7894 22.4017 24.6808 22.4298 24.5785C22.4578 24.4762 22.5174 24.3853 22.6 24.3188C22.7562 24.1938 22.9125 24.0625 23.0625 23.9306C23.1417 23.8603 23.2413 23.8169 23.3467 23.8068C23.4522 23.7967 23.5582 23.8204 23.6494 23.8744L25.0625 24.7288C25.1645 24.7959 25.2876 24.8234 25.4085 24.806C25.5294 24.7886 25.6397 24.7276 25.7187 24.6344L26.1869 24.0719C26.2655 23.9781 26.307 23.8588 26.3036 23.7364C26.3001 23.6141 26.2519 23.4973 26.1681 23.4081L25.0875 22.1619C25.0172 22.0806 24.975 21.9788 24.9671 21.8716C24.9593 21.7645 24.9861 21.6576 25.0437 21.5669C25.15 21.3981 25.25 21.2229 25.3437 21.0413C25.3947 20.9473 25.4741 20.8719 25.5705 20.8257C25.6669 20.7796 25.7755 20.7651 25.8806 20.7844L27.4987 21.0969C27.6179 21.126 27.7437 21.1102 27.852 21.0526C27.9603 20.9949 28.0437 20.8995 28.0862 20.7844L28.3362 20.0969C28.3782 19.9816 28.3766 19.8549 28.3317 19.7408C28.2868 19.6266 28.2017 19.5327 28.0925 19.4769L26.6494 18.6756C26.5563 18.6239 26.4824 18.5435 26.4385 18.4465C26.3946 18.3495 26.3831 18.241 26.4056 18.1369C26.4431 17.9369 26.4806 17.7425 26.5119 17.5425C26.5269 17.437 26.5748 17.339 26.6489 17.2624C26.723 17.1859 26.8194 17.1347 26.9244 17.1163L28.5544 16.8538C28.6757 16.8388 28.7874 16.7804 28.869 16.6894C28.9506 16.5984 28.9965 16.481 28.9981 16.3588V15.625C28.9913 15.5039 28.942 15.3891 28.8589 15.3007C28.7758 15.2123 28.6642 15.1561 28.5437 15.1419ZM16 7.00001C17.9962 6.99916 19.9359 7.66284 21.5133 8.88639C23.0906 10.1099 24.2157 11.8237 24.7112 13.7575C24.7481 13.905 24.7508 14.0589 24.7193 14.2076C24.6877 14.3563 24.6227 14.4958 24.5291 14.6156C24.4355 14.7354 24.3159 14.8323 24.1793 14.8989C24.0426 14.9655 23.8926 15.0001 23.7406 15H17.1631C16.9864 15 16.8129 14.9533 16.6602 14.8644C16.5075 14.7756 16.3811 14.6479 16.2937 14.4944L13.0375 8.76251C12.9617 8.62925 12.9175 8.48034 12.9084 8.32729C12.8993 8.17424 12.9255 8.02115 12.985 7.87985C13.0445 7.73855 13.1357 7.61282 13.2516 7.51239C13.3674 7.41196 13.5048 7.3395 13.6531 7.30063C14.4192 7.09965 15.208 6.9986 16 7.00001ZM6.99998 16C6.99885 14.7949 7.23975 13.6019 7.70838 12.4917C8.17701 11.3815 8.86383 10.3767 9.7281 9.53688C9.83723 9.42884 9.96979 9.34739 10.1155 9.29883C10.2612 9.25028 10.4161 9.23594 10.5682 9.25691C10.7203 9.27788 10.8656 9.33361 10.9927 9.41977C11.1198 9.50594 11.2254 9.62022 11.3012 9.75376L14.5662 15.5C14.6525 15.6511 14.6979 15.822 14.6979 15.9959C14.6979 16.1699 14.6525 16.3408 14.5662 16.4919L11.2744 22.2231C11.1979 22.3563 11.0919 22.4701 10.9644 22.5556C10.8369 22.6412 10.6915 22.6963 10.5393 22.7166C10.3871 22.7369 10.2323 22.7219 10.0869 22.6727C9.94144 22.6236 9.80926 22.5416 9.7006 22.4331C8.84476 21.5947 8.16501 20.5937 7.70125 19.489C7.23749 18.3843 6.99907 17.1981 6.99998 16ZM16 25C15.1942 25.0021 14.3917 24.898 13.6131 24.6906C13.4648 24.6512 13.3276 24.5782 13.2121 24.4773C13.0965 24.3764 13.0058 24.2502 12.9468 24.1086C12.8878 23.9669 12.8622 23.8136 12.872 23.6605C12.8818 23.5074 12.9266 23.3586 13.0031 23.2256L16.2894 17.5038C16.3772 17.3515 16.5037 17.2251 16.656 17.1374C16.8083 17.0496 16.9811 17.0035 17.1569 17.0038H23.7437C23.8957 17.0038 24.0456 17.0384 24.1822 17.1051C24.3187 17.1717 24.4383 17.2686 24.5318 17.3884C24.6253 17.5082 24.6903 17.6477 24.7218 17.7963C24.7533 17.945 24.7506 18.0988 24.7137 18.2463C24.2172 20.1796 23.0913 21.8928 21.5136 23.1156C19.9359 24.3384 17.9961 25.0014 16 25Z" fill="#424242" style="fill:#424242;fill:color(display-p3 0.2588 0.2588 0.2588);fill-opacity:1;"/>
</svg>
