<svg width="32" height="32" viewBox="0 0 32 32" fill="none" xmlns="http://www.w3.org/2000/svg">
<path d="M26 9H6C4.34315 9 3 10.3431 3 12V24C3 25.6569 4.34315 27 6 27H26C27.6569 27 29 25.6569 29 24V12C29 10.3431 27.6569 9 26 9Z" stroke="#424242" style="stroke:#424242;stroke:color(display-p3 0.2588 0.2588 0.2588);stroke-opacity:1;" stroke-width="2" stroke-linejoin="round"/>
<path d="M25.71 9V7.125C25.7099 6.66513 25.6082 6.21096 25.4123 5.79489C25.2164 5.37883 24.9311 5.01112 24.5768 4.71802C24.2224 4.42491 23.8077 4.21362 23.3623 4.09923C22.9169 3.98484 22.4517 3.97016 22 4.05625L5.54 6.86563C4.8252 7.00184 4.18035 7.38324 3.71665 7.94403C3.25296 8.50481 2.99951 9.20984 3 9.9375V13" stroke="#424242" style="stroke:#424242;stroke:color(display-p3 0.2588 0.2588 0.2588);stroke-opacity:1;" stroke-width="2" stroke-linejoin="round"/>
<path d="M23 20C22.6044 20 22.2178 19.8827 21.8889 19.6629C21.56 19.4432 21.3036 19.1308 21.1522 18.7654C21.0009 18.3999 20.9613 17.9978 21.0384 17.6098C21.1156 17.2219 21.3061 16.8655 21.5858 16.5858C21.8655 16.3061 22.2219 16.1156 22.6098 16.0384C22.9978 15.9613 23.3999 16.0009 23.7654 16.1522C24.1308 16.3036 24.4432 16.56 24.6629 16.8889C24.8827 17.2178 25 17.6044 25 18C25 18.5304 24.7893 19.0391 24.4142 19.4142C24.0391 19.7893 23.5304 20 23 20Z" fill="#424242" style="fill:#424242;fill:color(display-p3 0.2588 0.2588 0.2588);fill-opacity:1;"/>
</svg>
