<svg width="32" height="32" viewBox="0 0 32 32" fill="none" xmlns="http://www.w3.org/2000/svg">
<path d="M28 28V15M4 15V28M2 29H30M18 29V19.5C18 19.1022 18.158 18.7206 18.4393 18.4393C18.7206 18.158 19.1022 18 19.5 18H23.5C23.8978 18 24.2794 18.158 24.5607 18.4393C24.842 18.7206 25 19.1022 25 19.5V29M23.9044 3H8.09562C6.73375 3 5.50375 3.75 4.975 4.90375L2.26875 10.8125C1.3575 12.8006 2.87062 15.0531 5.21812 15.125H5.34312C7.30562 15.125 8.89625 13.5513 8.89625 11.8606C8.89625 13.5481 10.4875 15.125 12.45 15.125C14.4125 15.125 16 13.6638 16 11.8606C16 13.5481 17.5906 15.125 19.5531 15.125C21.5156 15.125 23.1069 13.6638 23.1069 11.8606C23.1069 13.6638 24.6975 15.125 26.66 15.125H26.7819C29.1294 15.0519 30.6425 12.7994 29.7313 10.8125L27.025 4.90375C26.4962 3.75 25.2663 3 23.9044 3ZM8.5 18H13.5C13.8978 18 14.2794 18.158 14.5607 18.4393C14.842 18.7206 15 19.1022 15 19.5V25H7V19.5C7 19.1022 7.15804 18.7206 7.43934 18.4393C7.72064 18.158 8.10218 18 8.5 18Z" stroke="#424242" style="stroke:#424242;stroke:color(display-p3 0.2588 0.2588 0.2588);stroke-opacity:1;" stroke-width="2" stroke-linecap="round" stroke-linejoin="round"/>
</svg>
