<svg width="32" height="32" viewBox="0 0 32 32" fill="none" xmlns="http://www.w3.org/2000/svg">
<path d="M12.25 13.75H16.25V24.5" stroke="#424242" style="stroke:#424242;stroke:color(display-p3 0.2588 0.2588 0.2588);stroke-opacity:1;" stroke-width="2.5" stroke-linecap="round" stroke-linejoin="round"/>
<path d="M11.6875 24.75H20.3125" stroke="#424242" style="stroke:#424242;stroke:color(display-p3 0.2588 0.2588 0.2588);stroke-opacity:1;" stroke-width="2.5" stroke-miterlimit="10" stroke-linecap="round"/>
<path d="M16 10C15.6044 10 15.2178 9.8827 14.8889 9.66294C14.56 9.44318 14.3036 9.13082 14.1522 8.76537C14.0009 8.39992 13.9613 7.99778 14.0384 7.60982C14.1156 7.22186 14.3061 6.86549 14.5858 6.58579C14.8655 6.30608 15.2219 6.1156 15.6098 6.03843C15.9978 5.96126 16.3999 6.00087 16.7654 6.15224C17.1308 6.30362 17.4432 6.55996 17.6629 6.88886C17.8827 7.21776 18 7.60444 18 8C18 8.53043 17.7893 9.03914 17.4142 9.41421C17.0391 9.78929 16.5304 10 16 10Z" fill="#424242" style="fill:#424242;fill:color(display-p3 0.2588 0.2588 0.2588);fill-opacity:1;"/>
</svg>
